<svg width="500" height="500" viewBox="0 0 500 500" fill="none" xmlns="http://www.w3.org/2000/svg">
<path d="M499.966 492.115V127.892C499.966 119.766 489.154 116.956 485.222 124.066C441.259 203.058 386.281 275.075 322.354 338.086C319.1 341.303 319.236 346.551 322.659 349.598L486.882 498.006C491.967 502.509 500 498.886 500 492.115H499.966Z" fill="#FBDB52"/>
<path d="M491.614 0H326.447C323.504 0 320.833 1.65787 319.48 4.26305C249.477 139.191 139.026 249.725 4.22727 319.895C1.62327 321.249 0 323.921 0 326.865V492.142C0 497.758 5.71527 501.547 10.8894 499.382C128.982 450.256 234.394 376.803 320.867 285.25C395.74 206.012 456.41 113.207 498.885 10.9282C501.05 5.75172 497.228 0.0338665 491.648 0.0338665L491.614 0Z" fill="#FFF861"/>
</svg>
