<svg width="996" height="211" viewBox="0 0 996 211" fill="none" xmlns="http://www.w3.org/2000/svg">
<path d="M155.989 154.045V40.4071C155.989 37.8718 152.616 36.995 151.389 39.2134C137.673 63.859 120.52 86.3283 100.574 105.988C99.5591 106.991 99.6014 108.629 100.67 109.579L151.907 155.883C153.493 157.288 156 156.157 156 154.045H155.989Z" fill="#FBDB52"/>
<path d="M153.384 0.504883H101.851C100.933 0.504883 100.1 1.02214 99.6778 1.83495C77.8367 43.9324 43.3762 78.419 1.31891 100.312C0.506461 100.734 0 101.568 0 102.487V154.053C0 155.805 1.78316 156.988 3.39751 156.312C40.2425 140.985 73.1308 118.067 100.11 89.5028C123.471 64.7806 142.4 35.8254 155.652 3.91449C156.327 2.29942 155.135 0.515449 153.394 0.515449L153.384 0.504883Z" fill="#FFF861"/>
<path d="M848.476 45.4686H872.457V156.485H848.476V140.498C839.452 153.077 826.494 159.367 809.623 159.367C794.372 159.367 781.351 153.74 770.539 142.496C759.737 131.095 754.331 117.253 754.331 100.971C754.331 84.6897 759.737 70.701 770.539 59.4469C781.341 48.1927 794.372 42.5762 809.623 42.5762C826.494 42.5762 839.452 48.7922 848.476 61.2244V45.4581V45.4686ZM788.303 126.519C794.961 133.177 803.323 136.511 813.399 136.511C823.475 136.511 831.826 133.177 838.495 126.519C845.152 119.714 848.487 111.195 848.487 100.982C848.487 90.7691 845.152 82.3337 838.495 75.6654C831.837 68.8603 823.475 65.4526 813.399 65.4526C803.323 65.4526 794.972 68.8603 788.303 75.6654C781.646 82.3232 778.311 90.7691 778.311 100.982C778.311 111.195 781.646 119.704 788.303 126.519Z" fill="white"/>
<path d="M722.704 42.5762H748.02L713.164 153.592H689.625L666.528 78.7682L643.21 153.592H619.671L584.814 42.5762H610.131L631.672 119.178L654.99 42.5762H677.856L700.953 119.178L722.714 42.5762H722.704Z" fill="white"/>
<path d="M408.125 42.5762C420.851 42.5762 431.138 46.6466 438.984 54.7874C446.831 62.9283 450.754 74.1088 450.754 88.3184V156.485H426.773V90.7586C426.773 82.4705 424.554 76.1072 420.115 71.6581C415.677 67.2195 409.608 65.0003 401.909 65.0003C393.473 65.0003 386.658 67.6613 381.483 72.9939C376.298 78.1792 373.71 86.1728 373.71 96.9746V156.485H349.729V45.4686H373.71V59.6782C380.968 48.2768 392.432 42.5762 408.125 42.5762Z" fill="white"/>
<path d="M311.676 155.938L300.8 124.626H234.632L223.757 155.938H196L252.397 0.504883H283.035L339.211 155.938H311.676ZM243.067 100.646H292.365L267.721 30.4808L243.078 100.646H243.067Z" fill="white"/>
<path d="M574.297 42.5762H549.148L489.302 210.673H513.587L574.297 42.5762Z" fill="white"/>
<path d="M494.224 147.355H517.311C517.311 103.664 495.065 65.1686 461.271 42.5762V71.9C481.539 90.6954 494.224 117.537 494.224 147.355Z" fill="white"/>
<path d="M996 42.5762H970.852L911.005 210.673H935.291L996 42.5762Z" fill="white"/>
<path d="M915.927 147.355H939.014C939.014 103.664 916.769 65.1686 882.975 42.5762V71.9C903.243 90.6954 915.927 117.537 915.927 147.355Z" fill="white"/>
</svg>
