<svg width="996" height="211" viewBox="0 0 996 211" fill="none" xmlns="http://www.w3.org/2000/svg">
<path d="M155.989 153.876V40.2387C155.989 37.7033 152.616 36.8265 151.389 39.0449C137.673 63.6905 120.52 86.1598 100.574 105.819C99.5591 106.823 99.6014 108.46 100.67 109.411L151.907 155.714C153.493 157.119 156 155.989 156 153.876H155.989Z" fill="#FBDB52"/>
<path d="M153.384 0.336426H101.851C100.933 0.336426 100.1 0.853682 99.6778 1.6665C77.8367 43.764 43.3762 78.2505 1.31891 100.144C0.506461 100.566 0 101.4 0 102.318V153.885C0 155.637 1.78316 156.819 3.39751 156.144C40.2425 140.816 73.1308 117.899 100.11 89.3344C123.471 64.6121 142.4 35.6569 155.652 3.74604C156.327 2.13096 155.135 0.346992 153.394 0.346992L153.384 0.336426Z" fill="#FFF861"/>
<path d="M848.476 45.3001H872.457V156.316H848.476V140.329C839.452 152.909 826.494 159.198 809.623 159.198C794.372 159.198 781.351 153.571 770.539 142.328C759.737 130.926 754.331 117.085 754.331 100.803C754.331 84.5213 759.737 70.5325 770.539 59.2784C781.341 48.0243 794.372 42.4077 809.623 42.4077C826.494 42.4077 839.452 48.6238 848.476 61.0559V45.2896V45.3001ZM788.303 126.351C794.961 133.009 803.323 136.343 813.399 136.343C823.475 136.343 831.826 133.009 838.495 126.351C845.152 119.546 848.487 111.026 848.487 100.813C848.487 90.6006 845.152 82.1653 838.495 75.4969C831.837 68.6919 823.475 65.2841 813.399 65.2841C803.323 65.2841 794.972 68.6919 788.303 75.4969C781.646 82.1548 778.311 90.6006 778.311 100.813C778.311 111.026 781.646 119.535 788.303 126.351Z" fill="black"/>
<path d="M722.704 42.4077H748.02L713.164 153.424H689.625L666.528 78.5997L643.21 153.424H619.671L584.814 42.4077H610.131L631.672 119.009L654.99 42.4077H677.856L700.953 119.009L722.714 42.4077H722.704Z" fill="black"/>
<path d="M408.125 42.4077C420.851 42.4077 431.138 46.4781 438.984 54.619C446.831 62.7598 450.754 73.9403 450.754 88.15V156.316H426.773V90.5901C426.773 82.302 424.554 75.9387 420.115 71.4896C415.677 67.0511 409.608 64.8318 401.909 64.8318C393.473 64.8318 386.658 67.4929 381.483 72.8254C376.298 78.0107 373.71 86.0043 373.71 96.8062V156.316H349.729V45.3001H373.71V59.5098C380.968 48.1084 392.432 42.4077 408.125 42.4077Z" fill="black"/>
<path d="M311.676 155.77L300.8 124.458H234.632L223.757 155.77H196L252.397 0.336426H283.035L339.211 155.77H311.676ZM243.067 100.477H292.365L267.721 30.3124L243.078 100.477H243.067Z" fill="black"/>
<path d="M574.297 42.4077H549.148L489.302 210.504H513.587L574.297 42.4077Z" fill="black"/>
<path d="M494.224 147.187H517.311C517.311 103.496 495.065 65.0001 461.271 42.4077V71.7315C481.539 90.527 494.224 117.369 494.224 147.187Z" fill="black"/>
<path d="M996 42.4077H970.852L911.005 210.504H935.291L996 42.4077Z" fill="black"/>
<path d="M915.927 147.187H939.014C939.014 103.496 916.769 65.0001 882.975 42.4077V71.7315C903.243 90.527 915.927 117.369 915.927 147.187Z" fill="black"/>
</svg>
